<?xml version="1.0" encoding="UTF-8" standalone="no"?>
<!DOCTYPE svg PUBLIC "-//W3C//DTD SVG 1.1//EN"
 "http://www.w3.org/Graphics/SVG/1.1/DTD/svg11.dtd">
<!-- Generated by graphviz version 2.50.0 (0)
 -->
<!-- Title: round&#45;table Pages: 1 -->
<svg width="334pt" height="98pt"
 viewBox="0.00 0.00 333.87 98.00" xmlns="http://www.w3.org/2000/svg" xmlns:xlink="http://www.w3.org/1999/xlink">
<g id="graph0" class="graph" transform="scale(1 1) rotate(0) translate(4 94)">
<title>round&#45;table</title>
<polygon fill="white" stroke="transparent" points="-4,4 -4,-94 329.87,-94 329.87,4 -4,4"/>
<!-- A -->
<g id="node1" class="node">
<title>A</title>
<ellipse fill="none" stroke="black" cx="53.95" cy="-45" rx="53.89" ry="18"/>
<text text-anchor="middle" x="53.95" y="-41.3" font-family="Times New Roman,serif" font-size="14.00">King Arthur</text>
</g>
<!-- B -->
<g id="node2" class="node">
<title>B</title>
<ellipse fill="none" stroke="black" cx="234.88" cy="-72" rx="89.88" ry="18"/>
<text text-anchor="middle" x="234.88" y="-68.3" font-family="Times New Roman,serif" font-size="14.00">Sir Bedevere the Wise</text>
</g>
<!-- A&#45;&gt;B -->
<g id="edge1" class="edge">
<title>A&#45;&gt;B</title>
<path fill="none" stroke="black" d="M103.37,-52.31C118.45,-54.58 135.53,-57.16 152.23,-59.68"/>
<polygon fill="black" stroke="black" points="152.16,-63.21 162.57,-61.24 153.2,-56.29 152.16,-63.21"/>
</g>
<!-- L -->
<g id="node3" class="node">
<title>L</title>
<ellipse fill="none" stroke="black" cx="234.88" cy="-18" rx="90.98" ry="18"/>
<text text-anchor="middle" x="234.88" y="-14.3" font-family="Times New Roman,serif" font-size="14.00">Sir Lancelot the Brave</text>
</g>
<!-- A&#45;&gt;L -->
<g id="edge2" class="edge">
<title>A&#45;&gt;L</title>
<path fill="none" stroke="black" d="M103.37,-37.69C118.28,-35.44 135.14,-32.9 151.66,-30.41"/>
<polygon fill="black" stroke="black" points="152.52,-33.82 161.89,-28.86 151.48,-26.89 152.52,-33.82"/>
</g>
<!-- B&#45;&gt;L -->
<g id="edge3" class="edge">
<title>B&#45;&gt;L</title>
<path fill="none" stroke="black" d="M234.88,-53.79C234.88,-51.31 234.88,-48.83 234.88,-46.34"/>
<polygon fill="black" stroke="black" points="238.38,-46.14 234.88,-36.14 231.38,-46.14 238.38,-46.14"/>
</g>
</g>
</svg>
